Patient4_TMGait_0pt3_02_right_18_EMG.mot
version=1
nRows=26
nColumns=33
inDegrees=no
endheader
time	1LAddLong	2LGlutMax	3LGlutMed	4LIliopsoas	5LSemiMemb	6LBicFemLong	7LRecFem	8LVastMed	9LVastLat	10LGasMed	11LTibAnt	12lTibPost	13LPeroneusLong	14LSol	15LExtDigLong	16LFlexDigLong	17RAddLong	18RGlutMax	19RGlutMed	20RIliopsoas	21RSemiMemb	22RBicFemLong	23RRecFem	24RVastMed	25RVastLat	26RGasMed	27RTibAnt	28RTibPost	29RPeroneusLong	30RSol	31RExtDigLong	32RFlexDigLong
36.113	0.019531	-0.36972	-0.11963	-0.000458	0.036469	0.10483	-0.22507	-0.006104	0.093536	-0.10986	-0.000153	-0.000916	-0.49423	0.38528	-0.011139	0.012665	0.042267	0.020447	0.23361	-0.18478	0.073242	0.00412	0.018921	0.10269	0.033569	-0.000305	0.075073	-0.00061	0.03006	0.038452	-0.004272	0.012512
36.114	0.022583	-0.35873	-0.013428	0.017548	0.034485	0.13596	-0.24155	0.011444	0.074463	-0.042572	-0.022736	-0.001984	0.52506	0.18662	-0.014801	0.011292	0.033569	0.008087	0.38803	-0.062866	0.097046	0.015106	-0.012817	0.081024	-0.001678	-0.002289	0.075836	-0.001526	0.13931	0.083771	-0.006561	0.008545
36.115	0.007172	-0.28824	-0.12421	0.016479	0.024261	0.26611	-0.15976	-0.001068	-0.022583	0.12955	-0.064087	0.002594	0.42633	0.12436	-0.055847	0.007324	0.003815	-0.004425	0.33112	-0.082855	0.088348	0.017395	-0.11322	0.053101	0.003204	-0.006104	0.35736	-0.002289	0.19516	0.17273	-0.005798	0.001068
36.116	-0.012512	-0.22644	-0.22079	0.012207	-0.003967	0.28793	-0.030365	-0.023499	-0.10407	0.14084	-0.036774	0.003052	-0.35446	-0.082092	-0.17136	-0.004425	-0.00061	0.018616	0.47913	-0.074768	0.078583	-0.002289	-0.15305	0.037384	-0.002899	-0.006714	-0.013275	-0.007172	0.10361	0.19867	-0.00824	0.000153
36.117	-0.014038	-0.19257	-0.18051	-0.000763	-0.012817	0.030212	0.04303	-0.007019	-0.10468	0.077209	-0.015259	-0.002899	-0.11337	-0.076141	-0.050964	-0.010071	-0.019531	-0.025177	0.38956	-0.039673	0.075684	-0.001831	-0.1387	-0.001068	-0.018158	-0.014343	0.19623	-0.001373	-0.019073	0.23529	-0.006256	-0.013885
36.118	-0.003052	-0.083618	-0.032806	-0.007477	-0.021362	-0.36224	0.00412	0.006409	-0.048065	0.065308	-0.037079	0.004272	-0.25848	0.1799	0.063171	0.002899	-0.016174	-0.039215	0.25482	0.031433	0.069885	-0.011902	-0.2417	-0.02533	-0.029297	-0.0177	0.54047	0.001221	-0.1062	0.19867	-0.001984	-0.005188
36.119	0.000458	-0.08255	0.037689	0.01297	-0.030518	-0.2858	-0.065765	0.022125	0.054474	0.036926	-0.008545	-0.007477	0.024261	0.23468	0.058441	0.001678	-0.012817	-0.065155	0.22507	0.10819	0.075073	-0.012054	-0.32028	-0.077362	-0.045624	-0.007172	0.30441	0.005035	-0.12863	0.074463	-0.003052	-0.000458
36.12	0.01709	-0.010529	0.059662	0.039978	0.005341	-0.17014	-0.058289	0.018463	0.15701	-0.12665	0.005188	-0.000305	0.14252	0.1413	0.071869	-0.006256	0.002899	-0.011902	-0.12177	0.11993	0.065765	-0.013428	-0.25406	-0.092621	-0.042572	-0.013733	0.060577	0.005493	-0.17487	0.071869	-0.001373	-0.016632
36.121	0.00946	0.040283	0.26001	0.030975	0.019073	-0.082092	-0.054169	0.014496	0.24719	-0.040131	0.009308	-0.000305	0.064697	-0.15915	0.065002	-0.002594	0.013428	0.005951	-0.17685	0.12161	0.068207	-0.035095	-0.25391	-0.10208	-0.058899	-0.018768	0.18646	0.004272	-0.14603	0.092773	0.002747	-0.023651
36.122	0.031281	0.002289	0.14145	-0.00061	0.001831	-0.11902	-0.081329	0.015869	0.28458	0.15579	0.025024	-0.010071	-0.036926	-0.12543	0.091705	-0.016327	0.004883	-0.023346	0.065308	0.19684	0.063629	-0.032959	-0.37247	-0.1268	-0.065002	-0.007935	-0.61081	0.007019	0.088196	-0.093384	-0.001678	-0.026398
36.123	0.027771	0.006866	0.11337	-0.00885	0.016632	0.034027	-0.050507	0.019531	0.16739	0.19577	0.006714	-0.005798	-0.15442	-0.090332	0.011902	-0.056	-0.001068	-0.051575	0.21561	0.19562	0.070953	-0.029602	-0.18188	-0.1326	-0.089874	-0.006409	-0.76065	0.004578	0.14877	-0.24338	0.002441	-0.024872
36.124	0.02655	0.028534	0.14481	0.000916	0.058136	0.057068	-0.062714	0.006256	0.15457	0.22492	0.009766	-0.000305	0.1828	-0.08194	-0.071259	0.00473	0.003357	-0.072174	0.28839	0.054474	0.072784	-0.005798	0.006256	-0.1799	-0.082245	0	0.18662	0.006104	0.12466	-0.24658	-0.000458	-0.023956
36.125	0.025482	0.03891	0.1355	0.009155	0.069122	0.009918	-0.14069	-0.002136	0.11231	-0.15274	-0.007019	-0.00473	0.24765	-0.033417	0.037842	0.04715	0.006409	-0.024567	0.24536	-0.006256	0.076599	-0.008698	0.081787	-0.1709	-0.067902	-0.001221	0.38406	0.006409	0.070496	-0.077362	-0.002747	-0.019531
36.126	0.023651	0.05722	0.030365	-0.002899	0.009155	-0.016022	-0.24674	-0.006104	-0.054779	0.010529	0.01297	-0.005493	-0.31693	-0.031586	0.13733	-0.13336	-0.010529	-0.026855	0.17975	0.011292	0.07843	-0.002441	0.2446	-0.12924	-0.072479	-0.003662	-0.004272	0.005951	0.045471	-0.029297	-0.003662	-0.015411
36.127	0.013123	0.06424	-0.083618	-0.01236	-0.060425	0.057526	-0.21988	-0.014648	-0.18509	0.34378	0.000153	0.000763	-0.26123	-0.31967	0.070038	0.19898	-0.009918	0.032043	0.22812	0.072632	0.070496	0.000458	0.33676	-0.11856	-0.064392	-0.002899	-0.044861	0.005646	0.014648	-0.049744	-0.001221	-0.012207
36.128	0.00473	0.067749	-0.18005	-0.005493	-0.047913	0.092316	-0.066223	0	-0.36484	0.30029	-0.029144	0.000916	0.11826	-0.327	0.009155	0.17807	-0.008087	-0.045471	0.22049	0.023956	0.068207	-0.015717	0.3009	-0.21469	-0.063324	-0.001373	-0.32761	0.00885	-0.0354	-0.009003	-0.001526	-0.016327
36.129	-0.000153	0.061188	-0.15411	-0.009003	-0.001526	0.050354	0.074615	0.034485	-0.43991	0.27313	-0.027161	0.031891	0.22446	-0.11993	-0.055237	-0.15839	0.000305	-0.011902	0.26138	-0.009003	0.074921	-0.006409	0.011139	-0.33081	-0.076599	0.00412	-0.30395	0.010529	0.078888	-0.0354	-0.001373	-0.009003
36.13	0.008392	0.013885	-0.04425	0.021667	0.066681	0.062408	0.21194	0.0354	-0.22507	0.046692	-0.008698	0.035858	0.31723	-0.11292	-0.054626	-0.062866	-0.009766	-0.097656	0.2803	-0.009766	0.062866	-0.001678	-0.18341	-0.37491	-0.087738	0.008087	0.14862	0.007324	0.086975	-0.11719	0.001526	-0.012817
36.131	0.010376	-0.036621	-0.34698	0.020447	0.062561	0.10056	0.25894	0.012817	-0.08728	-0.061951	-0.00412	-0.016937	0.17548	-0.37384	-0.051575	0.051575	-0.012054	-0.11154	0.19318	-0.012817	0.072632	-0.018158	-0.13473	-0.31357	-0.054321	0.011292	0.67154	0.00946	-0.001984	-0.27329	-0.000305	-0.009308
36.132	0.00824	0.015106	-0.19134	-0.014038	0.019836	0.083771	0.1001	-0.007935	-0.15243	-0.15793	-0.000763	0.015869	-0.25207	-0.44083	-0.061188	-0.003052	-0.021057	-0.076294	0.26474	-0.015106	0.076599	0.004578	-0.16678	-0.30167	-0.053101	0.000458	0.64987	0.012665	-0.18402	-0.32516	-0.004883	-0.010834
36.133	0.005188	0.14511	0.070343	-0.045013	0.005646	0.13748	-0.10513	0.002136	-0.24078	-0.11658	0.042419	0.020752	-0.11932	0.021057	-0.029602	-0.035553	-0.016022	-0.000458	0.30029	-0.008392	0.077362	0.002136	-0.2681	-0.16296	-0.046234	-0.000916	0.13763	0.011292	-0.1738	-0.24918	-0.001068	-0.015564
36.134	0.002747	0.077362	0.19989	0.018768	-0.004578	0.19379	-0.16037	0.018921	-0.25452	-0.12863	0.030212	0.007935	-0.044403	0.17487	-0.046082	-0.019684	-0.003052	0.052338	0.60532	-0.093536	0.072327	0.003662	-0.40924	-0.097504	-0.038757	-0.004883	-0.61417	0.015869	-0.003357	-0.081024	-0.00061	-0.010681
36.135	-0.002136	0.011292	0.45227	-0.003052	-0.004272	0.078888	-0.13519	0.005341	0.00061	-0.17166	-0.010986	-0.077209	0.34622	0.19791	-0.04303	-0.006256	-0.01358	0.082092	0.80231	-0.17899	0.068512	0.001831	-0.21118	-0.16113	-0.023804	-0.004578	-0.48767	0.010529	-0.031586	0.10223	-0.005188	-0.019989
36.136	-0.000458	-0.021057	0.35141	0.006409	0.002289	-0.001678	-0.12344	-0.001221	0.15671	-0.06073	-0.010681	-0.06073	0.057373	0.15167	-0.074921	-0.010376	-0.002136	-0.005493	0.32288	-0.0737	0.074615	-0.018768	-0.032806	-0.1564	-0.01236	-0.024109	0.027008	0.003967	-0.21545	0.14511	0.002899	-0.028534
36.137	0.009308	0.016327	0.32623	0.005188	0.009918	-0.041809	-0.11002	-0.013123	0.066833	0.21973	-0.013733	-0.000458	-0.069427	0.10452	0.029144	-0.022278	0.006561	0.043488	0.30304	-0.032349	0.075531	-0.018158	0.1387	-0.036469	-0.021362	-0.007172	0.48553	0.012665	-0.063934	0.018463	-0.002594	-0.025024
36.138	0.013733	-0.025177	0.22354	0.004578	0.014648	-0.004883	-0.003357	-0.010376	-0.061035	0.27863	0.00473	0.000305	-0.32577	0.29556	0.027618	-0.030975	0.00351	0.018616	0.42602	-0.002899	0.06958	-0.012054	0.30991	0.095673	0.002747	0.016327	0.22003	0.009155	0.26993	-0.17014	-0.002899	-0.019989
